# xmcd
#
# Track frame offsets:
# 150
# 15341
# 37124
# 55751
# 70782
# 87563
# 98432
# 120354
# 132456
# 147262
# 164415
# 180765
#
# Disc length: 2656 seconds
#
#
# Revision: 0
# Processed by: cddbd v1.5.1PL2 Copyright (c) Steve Scherf et al.
# Submitted via: FreeRIP 2.945 
#
DISCID=940a5e0c
DTITLE=Milionário and José Rico - VOL 14 - LEMBRANÇA
DYEAR=1984
DGENRE=Sertanejo
TTITLE0=VOCÊ AGORA VAI DECIDIR DUAS CAMISAS
TTITLE1=LEMBRANÇA
TTITLE2=ENTRE LÁGRIMAS
TTITLE3=A POMBINHA BRANCA VOLTOU
TTITLE4=ESQUINA DO ADEUS
TTITLE5=MINHA ÚLTIMA CANÇÃO
TTITLE6=MAIS UMA NOITE VOU DORMIR SEM O MEU BEM
TTITLE7=VINTE ANOS
TTITLE8=CABECINHA NO OMBRO
TTITLE9=ORGULHOSA E BONITA
TTITLE10=DESVENTURA
TTITLE11=FLOR DA LAMA
EXTD=
EXTT0=
EXTT1=
EXTT2=
EXTT3=
EXTT4=
EXTT5=
EXTT6=
EXTT7=
EXTT8=
EXTT9=
EXTT10=
EXTT11=
PLAYORDER=
